<?xml version="1.0" standalone="no"?>
<!DOCTYPE svg PUBLIC "-//W3C//DTD SVG 20010904//EN"
 "http://www.w3.org/TR/2001/REC-SVG-20010904/DTD/svg10.dtd">
<svg version="1.0" xmlns="http://www.w3.org/2000/svg"
 width="2400.000000pt" height="2400.000000pt" viewBox="0 0 2400.000000 2400.000000"
 preserveAspectRatio="xMidYMid meet">

<g transform="translate(0.000000,2400.000000) scale(0.100000,-0.100000)"
fill="#000000" stroke="none">
<path d="M11420 23370 c-1597 -66 -2970 -401 -4285 -1044 -923 -452 -1696
-994 -2389 -1676 -439 -432 -615 -659 -660 -850 -64 -268 95 -577 359 -701
161 -75 450 -53 583 45 54 40 218 206 417 424 333 364 792 750 1266 1064 1181
783 2505 1258 3959 1422 714 81 1553 86 2270 16 1300 -128 2506 -468 3555
-1000 542 -275 994 -558 1570 -984 266 -197 457 -323 518 -342 29 -8 91 -18
138 -21 288 -18 560 176 645 462 25 82 25 248 0 330 -46 155 -157 280 -446
505 -354 275 -911 647 -1365 910 -329 191 -869 452 -1265 610 -1235 494 -2350
739 -3730 820 -246 14 -896 20 -1140 10z"/>
<path d="M11475 21199 c-316 -12 -622 -36 -835 -65 -1599 -216 -2918 -741
-4126 -1644 -301 -226 -521 -418 -829 -725 -663 -662 -1324 -1488 -1970 -2460
-425 -640 -464 -720 -452 -929 16 -304 188 -519 471 -590 80 -20 212 -21 281
-3 81 22 197 75 242 110 67 51 126 132 446 611 408 612 623 916 876 1241 893
1148 1728 1875 2756 2400 945 483 1978 737 3265 805 1916 100 3684 -461 5340
-1693 386 -288 575 -452 993 -867 442 -437 639 -651 906 -985 330 -413 408
-481 601 -531 82 -21 208 -15 300 15 157 50 316 184 388 328 52 105 66 173 60
293 -9 168 -63 284 -248 531 -449 600 -1339 1512 -1959 2007 -654 522 -1404
990 -2111 1317 -973 450 -1926 710 -3010 821 -185 19 -1039 27 -1385 13z"/>
<path d="M11655 19014 c-1053 -43 -1902 -252 -2780 -685 -1176 -580 -2161
-1494 -3062 -2844 -66 -99 -211 -326 -323 -505 -541 -868 -757 -1157 -1170
-1571 -340 -341 -641 -586 -975 -792 -118 -73 -184 -133 -238 -215 -72 -108
-89 -167 -95 -312 -4 -141 10 -224 54 -315 72 -147 248 -284 424 -330 94 -25
219 -23 300 4 322 110 1008 628 1490 1128 399 413 705 821 1150 1533 324 518
659 1010 896 1314 436 558 983 1077 1514 1438 747 508 1530 778 2555 880 176
17 881 17 1075 0 976 -88 1869 -365 2610 -810 847 -508 1672 -1386 2150 -2287
221 -418 399 -844 475 -1140 64 -249 70 -317 70 -835 0 -669 -13 -796 -251
-2360 -178 -1170 -207 -1401 -225 -1764 -12 -240 -7 -606 11 -788 40 -402 195
-870 435 -1308 285 -520 628 -967 1114 -1450 361 -358 482 -432 711 -433 107
-1 173 15 279 65 66 32 101 57 161 117 132 132 187 279 178 476 -8 188 -46
243 -507 737 -592 633 -945 1196 -1076 1717 -39 154 -55 295 -55 502 0 374 47
784 221 1924 242 1587 257 1718 266 2410 8 624 -8 876 -72 1155 -302 1312
-1284 2841 -2415 3762 -552 448 -1195 823 -1860 1083 -689 269 -1395 426
-2185 485 -148 11 -697 20 -850 14z"/>
<path d="M11635 16839 c-1251 -96 -2354 -605 -3284 -1514 -383 -375 -649 -695
-924 -1112 -241 -365 -385 -625 -703 -1268 -237 -479 -305 -600 -442 -789
-226 -308 -450 -566 -786 -901 -558 -556 -1145 -1034 -1916 -1558 -239 -163
-385 -273 -451 -340 -172 -175 -197 -483 -57 -713 112 -186 289 -292 503 -302
173 -8 280 34 575 223 623 401 1325 944 1885 1457 212 195 610 596 780 788
229 259 499 608 627 810 91 146 320 575 537 1008 561 1122 1140 1825 1923
2335 529 345 1042 534 1623 599 179 20 653 17 835 -5 678 -82 1258 -322 1845
-762 348 -261 677 -606 899 -943 384 -583 555 -1224 532 -1989 -16 -532 -86
-1046 -276 -2023 -159 -821 -228 -1255 -272 -1700 -20 -207 -17 -805 5 -995
77 -654 227 -1267 438 -1793 70 -173 233 -507 320 -655 353 -599 782 -1034
1334 -1352 232 -134 581 -295 796 -369 393 -134 635 -90 842 152 195 229 181
601 -32 813 -79 78 -163 123 -486 260 -246 104 -394 177 -535 264 -729 452
-1159 1247 -1391 2570 -28 160 -32 207 -36 430 -3 138 0 345 6 460 24 439 60
681 246 1650 192 1000 252 1399 291 1920 22 298 15 813 -15 1060 -70 571 -202
1031 -436 1510 -220 450 -509 849 -895 1235 -899 900 -2077 1451 -3295 1540
-161 11 -450 11 -610 -1z"/>
<path d="M19720 15073 c-144 -24 -309 -128 -405 -255 -91 -120 -121 -219 -112
-372 7 -127 27 -200 128 -472 94 -257 153 -454 208 -706 323 -1469 294 -3122
-88 -5068 -76 -386 -84 -453 -79 -614 5 -147 20 -198 84 -295 179 -270 511
-356 807 -209 103 52 228 172 271 262 73 153 241 974 335 1641 96 675 139
1249 148 1945 10 814 -35 1454 -153 2140 -116 680 -342 1436 -506 1697 -56 89
-180 202 -271 247 -111 55 -254 78 -367 59z"/>
<path d="M11770 14594 c-120 -9 -352 -46 -470 -74 -465 -113 -898 -325 -1280
-628 -136 -108 -399 -376 -510 -520 -190 -246 -302 -439 -642 -1105 -375 -737
-569 -1080 -841 -1487 -411 -616 -964 -1224 -1627 -1791 -481 -411 -1175 -937
-2330 -1764 -445 -319 -763 -554 -880 -652 -142 -119 -202 -250 -203 -443 -1
-126 17 -202 75 -312 78 -151 218 -258 383 -293 102 -21 279 -20 353 4 84 26
391 234 1287 874 1171 837 1785 1313 2375 1841 213 191 706 688 871 876 513
587 912 1167 1344 1955 48 88 190 360 315 605 371 727 454 865 635 1058 283
301 659 506 1050 572 112 19 154 22 305 17 316 -10 554 -84 801 -249 115 -76
310 -268 396 -388 215 -302 392 -763 434 -1129 15 -132 7 -432 -15 -561 -121
-709 -620 -1653 -1388 -2628 -1237 -1571 -3275 -3469 -5603 -5219 -295 -221
-500 -387 -586 -472 -60 -60 -81 -89 -98 -136 -49 -129 -64 -289 -40 -407 50
-239 302 -458 549 -475 85 -6 202 13 294 47 80 30 234 135 591 402 2094 1564
4055 3333 5331 4808 1238 1431 2016 2797 2188 3840 35 216 46 352 46 596 0
231 -10 357 -41 534 -99 562 -315 1084 -617 1500 -101 139 -172 221 -306 359
-469 479 -948 723 -1611 821 -136 20 -418 32 -535 24z"/>
<path d="M11785 12069 c-140 -23 -253 -98 -338 -223 -22 -33 -106 -186 -185
-341 -252 -490 -393 -734 -628 -1091 -575 -877 -1271 -1716 -2204 -2658 -1136
-1146 -2294 -2132 -3745 -3186 -303 -221 -426 -320 -477 -383 -96 -122 -133
-253 -126 -446 5 -130 16 -166 87 -270 84 -124 193 -208 333 -259 65 -24 87
-27 203 -26 150 0 187 10 321 92 199 122 691 477 1177 851 2252 1732 4056
3537 5278 5281 351 501 589 900 855 1430 155 310 190 395 210 516 36 210 -28
408 -181 560 -80 80 -182 137 -274 154 -63 12 -234 11 -306 -1z"/>
<path d="M13780 7190 c-130 -20 -229 -71 -337 -173 -82 -79 -140 -160 -206
-292 -318 -640 -407 -1567 -221 -2323 83 -341 230 -707 414 -1037 80 -143 285
-450 395 -590 285 -366 648 -727 1065 -1062 309 -249 411 -302 590 -311 119
-5 194 9 295 57 230 108 358 315 359 581 1 230 -61 320 -428 627 -329 276
-770 725 -957 976 -208 279 -429 733 -510 1051 -37 145 -49 276 -49 551 0 434
31 582 199 965 68 155 91 249 91 369 0 176 -50 301 -165 416 -39 39 -99 87
-135 108 -122 71 -280 105 -400 87z"/>
<path d="M10791 3759 c-143 -16 -414 -117 -649 -243 -398 -214 -828 -568
-1368 -1126 -305 -316 -409 -468 -435 -641 -10 -63 -9 -91 5 -175 20 -123 63
-216 141 -302 105 -116 228 -188 367 -216 178 -37 300 -7 458 110 36 27 220
204 410 395 417 419 633 605 891 767 162 102 282 157 409 187 87 20 142 19
236 -5 384 -97 694 -495 951 -1220 24 -69 67 -183 96 -255 46 -116 58 -136
115 -197 80 -84 181 -152 275 -186 59 -21 91 -25 177 -26 184 -1 322 56 456
189 94 93 143 179 170 302 32 145 1 324 -109 633 -277 775 -631 1294 -1141
1673 -155 115 -478 262 -700 319 -71 18 -117 21 -376 23 -162 2 -333 -1 -379
-6z"/>
</g>
</svg>
