<?xml version="1.0" standalone="no"?>
<!DOCTYPE svg PUBLIC "-//W3C//DTD SVG 20010904//EN"
 "http://www.w3.org/TR/2001/REC-SVG-20010904/DTD/svg10.dtd">
<svg version="1.0" xmlns="http://www.w3.org/2000/svg"
 width="512.000000pt" height="512.000000pt" viewBox="0 0 512.000000 512.000000"
 preserveAspectRatio="xMidYMid meet">

<g transform="translate(0.000000,512.000000) scale(0.100000,-0.100000)"
fill="#000000" stroke="none">
<path d="M1720 4799 c-610 -59 -1133 -473 -1324 -1049 -43 -129 -62 -222 -76
-365 -13 -146 -13 -1504 0 -1650 37 -381 186 -701 450 -965 259 -259 568 -407
935 -450 122 -13 1584 -13 1713 0 701 76 1258 607 1373 1310 20 122 20 1749 1
1860 -50 277 -143 495 -302 705 -258 341 -653 562 -1079 605 -122 12 -1563 11
-1691 -1z m899 -818 c17 -13 63 -128 190 -477 l168 -459 507 -5 508 -5 29 -33
c34 -38 38 -83 11 -124 -9 -15 -195 -163 -412 -328 -217 -166 -396 -305 -398
-310 -2 -4 63 -217 143 -473 80 -255 145 -478 145 -495 0 -74 -89 -122 -154
-84 -19 12 -206 145 -415 297 -238 172 -385 274 -393 269 -7 -4 -190 -131
-407 -282 -217 -151 -410 -281 -429 -289 -20 -8 -46 -11 -63 -8 -36 8 -79 58
-79 93 0 14 68 238 151 496 83 259 152 476 153 482 0 6 -174 147 -389 313
-214 166 -395 312 -402 324 -22 39 -16 84 16 119 l29 33 513 5 512 5 154 455
c85 250 161 463 170 472 19 21 68 36 98 30 11 -2 31 -11 44 -21z"/>
</g>
</svg>
