<?xml version="1.0" standalone="no"?>
<!DOCTYPE svg PUBLIC "-//W3C//DTD SVG 20010904//EN"
 "http://www.w3.org/TR/2001/REC-SVG-20010904/DTD/svg10.dtd">
<svg version="1.0" xmlns="http://www.w3.org/2000/svg"
 width="700.000000pt" height="700.000000pt" viewBox="0 0 700.000000 700.000000"
 preserveAspectRatio="xMidYMid meet">

<g transform="translate(0.000000,700.000000) scale(0.100000,-0.100000)"
fill="#000000" stroke="none">
<path d="M3462 6630 c-474 -67 -875 -403 -1041 -873 -57 -161 -74 -272 -74
-462 0 -190 18 -303 74 -462 157 -445 529 -772 976 -859 119 -24 339 -24 456
-1 386 77 719 330 901 687 95 187 141 358 152 565 36 667 -404 1256 -1036
1391 -89 18 -319 27 -408 14z"/>
<path d="M908 4582 c-53 -15 -99 -29 -101 -32 -3 -3 95 -363 218 -800 163
-582 226 -795 236 -793 8 1 48 14 89 29 68 26 87 28 210 29 122 0 142 -3 208
-27 107 -39 177 -84 257 -164 143 -142 209 -336 184 -535 -19 -154 -89 -290
-204 -398 -78 -72 -146 -112 -254 -148 l-84 -27 44 -19 c222 -95 740 -228
1022 -262 l57 -7 0 775 c0 427 3 778 8 780 12 8 259 -12 397 -32 180 -27 346
-65 505 -117 131 -43 332 -133 418 -187 l42 -27 0 -488 c0 -268 3 -551 7 -629
l6 -143 80 0 79 0 -7 628 -8 629 59 35 c307 185 717 295 1237 332 l77 6 0
-234 0 -235 58 -16 c151 -44 307 -166 388 -304 l43 -74 12 29 c15 39 6 156
-20 268 -71 297 -251 583 -509 809 -251 219 -542 388 -912 530 -144 55 -407
137 -440 137 -10 0 -159 -112 -332 -248 -173 -137 -319 -252 -325 -255 -6 -4
-148 101 -321 237 -170 134 -319 250 -330 257 -25 16 -123 -8 -357 -88 -451
-155 -811 -364 -1092 -636 -62 -60 -94 -85 -98 -76 -3 8 -101 351 -218 763
-117 412 -217 751 -222 752 -6 1 -54 -10 -107 -24z"/>
<path d="M1447 2850 c-16 -5 -34 -13 -40 -18 -7 -4 -30 -14 -52 -21 -94 -30
-201 -142 -246 -259 -33 -86 -38 -229 -10 -320 70 -230 309 -382 542 -343 109
18 190 59 268 138 102 102 140 197 141 344 1 276 -224 492 -508 488 -37 0 -80
-5 -95 -9z"/>
<path d="M5430 2351 c-207 -66 -341 -249 -342 -466 -1 -147 53 -270 161 -368
120 -107 282 -149 439 -112 93 22 159 60 233 134 119 119 165 262 136 418 -28
148 -100 256 -221 335 -117 76 -280 100 -406 59z"/>
<path d="M1208 683 c6 -2 18 -2 25 0 6 3 1 5 -13 5 -14 0 -19 -2 -12 -5z"/>
</g>
</svg>
