<?xml version="1.0" standalone="no"?>
<!DOCTYPE svg PUBLIC "-//W3C//DTD SVG 20010904//EN"
 "http://www.w3.org/TR/2001/REC-SVG-20010904/DTD/svg10.dtd">
<svg version="1.0" xmlns="http://www.w3.org/2000/svg"
 width="512.000000pt" height="512.000000pt" viewBox="0 0 512.000000 512.000000"
 preserveAspectRatio="xMidYMid meet">

<g transform="translate(0.000000,512.000000) scale(0.100000,-0.100000)"
fill="#000000" stroke="none">
<path d="M3586 5109 c-441 -61 -832 -342 -1034 -745 -43 -86 -98 -249 -119
-352 -24 -122 -24 -385 0 -502 59 -281 178 -503 376 -700 58 -58 127 -120 154
-138 l47 -33 0 146 c0 94 6 173 16 223 60 296 291 525 589 587 44 9 81 17 83
19 1 2 -15 6 -38 10 -111 18 -251 128 -303 239 -83 178 -49 377 88 512 180
178 453 178 630 0 217 -216 159 -577 -113 -714 -33 -17 -79 -33 -102 -37 -22
-4 -39 -8 -38 -10 2 -2 39 -10 82 -19 102 -21 164 -46 251 -100 122 -75 231
-201 291 -334 44 -99 57 -167 63 -348 l6 -172 70 53 c157 119 329 333 408 506
90 198 122 344 121 565 0 176 -13 264 -65 420 -68 203 -171 367 -334 531 -202
203 -418 320 -700 379 -95 20 -332 28 -429 14z"/>
<path d="M3688 4189 c-43 -22 -78 -81 -78 -129 0 -50 35 -107 80 -130 21 -11
53 -20 70 -20 17 0 49 9 70 20 45 23 80 80 80 130 0 50 -35 107 -80 130 -49
25 -94 25 -142 -1z"/>
<path d="M1810 3835 l0 -225 -150 0 -150 0 0 -375 0 -375 150 0 150 0 0 225 0
225 150 0 150 0 0 375 0 375 -150 0 -150 0 0 -225z"/>
<path d="M3655 3296 c-84 -21 -147 -57 -211 -121 -65 -65 -105 -136 -123 -223
-6 -29 -11 -145 -11 -257 l0 -204 68 -20 c154 -46 213 -55 382 -55 169 0 228
9 383 55 l67 20 0 204 c0 114 -5 227 -11 257 -19 86 -59 158 -124 224 -112
113 -269 158 -420 120z"/>
<path d="M1047 2532 l-207 -207 213 -213 212 -212 210 210 210 210 -210 210
c-115 116 -212 210 -215 210 -3 0 -99 -93 -213 -208z"/>
<path d="M424 1908 c-216 -220 -273 -294 -336 -441 -65 -149 -82 -238 -82
-417 0 -179 17 -268 82 -417 53 -124 121 -223 222 -323 140 -141 305 -234 499
-282 117 -30 349 -32 465 -4 144 33 278 93 391 174 28 20 139 124 248 231
l197 195 -212 213 -213 213 -185 -184 c-146 -145 -198 -190 -247 -215 -177
-88 -379 -56 -519 83 -105 105 -150 245 -126 387 22 130 46 165 253 374 l189
191 -213 212 -213 213 -200 -203z"/>
<path d="M3310 1960 l0 -150 -225 0 -225 0 0 -150 0 -150 375 0 375 0 0 150 0
150 225 0 225 0 0 150 0 150 -375 0 -375 0 0 -150z"/>
<path d="M2107 1472 l-207 -207 213 -213 212 -212 210 210 210 210 -210 210
c-115 116 -212 210 -215 210 -3 0 -99 -93 -213 -208z"/>
</g>
</svg>
