<?xml version="1.0" standalone="no"?>
<!DOCTYPE svg PUBLIC "-//W3C//DTD SVG 20010904//EN"
 "http://www.w3.org/TR/2001/REC-SVG-20010904/DTD/svg10.dtd">
<svg version="1.0" xmlns="http://www.w3.org/2000/svg"
 width="512.000000pt" height="512.000000pt" viewBox="0 0 512.000000 512.000000"
 preserveAspectRatio="xMidYMid meet">

<g transform="translate(0.000000,512.000000) scale(0.100000,-0.100000)"
fill="#000000" stroke="none">
<path d="M632 4370 c-18 -11 -41 -34 -52 -52 -19 -32 -20 -52 -20 -860 0 -456
2 -828 3 -828 2 0 30 10 63 22 49 18 81 22 194 22 117 1 145 -2 209 -23 197
-65 364 -244 416 -446 17 -66 21 -228 6 -287 l-9 -38 248 0 248 0 -10 43 c-15
63 -11 214 7 282 58 225 245 408 470 461 102 24 267 15 357 -18 189 -71 335
-220 395 -403 27 -86 37 -236 20 -322 l-9 -43 247 0 247 0 -6 23 c-4 12 -10
63 -13 112 -15 263 128 497 372 610 154 71 312 74 513 10 l22 -7 0 819 0 820
-23 43 c-13 25 -37 51 -57 61 -33 18 -103 19 -1920 19 -1863 0 -1885 0 -1918
-20z m2448 -712 c107 -55 107 -206 0 -261 -32 -16 -74 -17 -540 -15 l-505 3
-32 23 c-40 28 -68 98 -59 146 8 43 49 94 91 112 23 10 134 13 515 14 484 0
486 0 530 -22z m737 -538 c106 -48 112 -198 11 -260 -32 -20 -53 -20 -1273
-20 -1189 0 -1242 1 -1275 19 -39 20 -80 83 -80 123 0 59 39 119 95 144 24 11
256 13 1255 13 1187 1 1226 0 1267 -19z"/>
<path d="M762 2379 c-102 -20 -196 -94 -241 -189 -22 -47 -26 -69 -26 -145 0
-80 3 -97 30 -148 134 -265 519 -243 621 35 26 70 23 182 -8 249 -50 109 -137
177 -252 198 -66 12 -64 12 -124 0z"/>
<path d="M2480 2377 c-234 -52 -341 -318 -209 -516 118 -177 367 -204 514 -57
78 78 100 132 100 241 0 76 -4 98 -26 145 -69 144 -225 221 -379 187z"/>
<path d="M4200 2377 c-180 -40 -295 -214 -260 -391 7 -33 20 -77 30 -96 28
-56 96 -119 158 -148 49 -23 71 -27 147 -27 80 0 97 3 149 30 110 56 177 158
184 284 3 62 0 87 -19 136 -58 154 -229 247 -389 212z"/>
<path d="M355 1541 c-62 -28 -161 -108 -210 -168 -52 -64 -109 -175 -130 -253
-9 -34 -15 -103 -15 -182 l0 -127 31 -36 c17 -19 47 -40 67 -45 25 -8 265 -10
747 -8 l710 3 36 23 c60 37 72 74 67 216 -3 99 -9 135 -32 201 -34 99 -98 196
-179 271 -58 55 -169 124 -197 124 -7 0 -34 -16 -60 -35 -208 -152 -516 -151
-730 4 -50 36 -52 36 -105 12z"/>
<path d="M2055 1527 c-78 -42 -184 -143 -235 -223 -68 -108 -93 -198 -97 -349
-4 -118 -2 -133 17 -163 12 -20 39 -41 65 -53 43 -19 68 -19 757 -17 792 3
749 0 800 70 21 30 23 43 22 143 -1 139 -14 196 -70 312 -65 131 -187 252
-303 299 l-42 17 -52 -36 c-223 -154 -519 -155 -727 -2 -26 19 -54 35 -61 35
-8 0 -41 -15 -74 -33z"/>
<path d="M3770 1523 c-173 -102 -291 -278 -320 -481 -24 -165 -8 -243 64 -296
27 -21 36 -21 759 -21 703 0 733 1 764 19 54 33 73 81 73 184 0 200 -62 355
-195 487 -71 71 -180 145 -214 145 -6 0 -44 -22 -84 -48 -113 -74 -195 -97
-342 -97 -105 1 -130 4 -200 28 -43 16 -109 48 -146 73 -37 24 -73 44 -81 44
-7 0 -42 -17 -78 -37z"/>
</g>
</svg>
