<?xml version="1.0" standalone="no"?>
<!DOCTYPE svg PUBLIC "-//W3C//DTD SVG 20010904//EN"
 "http://www.w3.org/TR/2001/REC-SVG-20010904/DTD/svg10.dtd">
<svg version="1.0" xmlns="http://www.w3.org/2000/svg"
 width="512.000000pt" height="512.000000pt" viewBox="0 0 512.000000 512.000000"
 preserveAspectRatio="xMidYMid meet">

<g transform="translate(0.000000,512.000000) scale(0.100000,-0.100000)"
fill="#000000" stroke="none">
<path d="M3922 4808 c-172 -172 -326 -333 -343 -357 -51 -78 -54 -101 -35
-355 l17 -230 -605 -605 c-333 -333 -609 -618 -615 -632 -5 -15 -12 -69 -16
-120 -6 -84 -4 -98 14 -126 36 -56 64 -68 160 -66 171 5 91 -60 786 633 l620
619 201 -16 c304 -23 246 -55 657 355 185 185 340 346 343 356 9 28 -37 66
-79 66 -18 0 -101 5 -185 12 l-152 11 75 78 c88 90 110 133 100 198 -6 41 -16
55 -93 132 -66 65 -96 88 -123 93 -70 13 -97 -1 -201 -102 -54 -52 -99 -93
-99 -91 -1 2 -9 100 -19 218 -19 228 -22 241 -74 241 -13 0 -129 -109 -334
-312z"/>
<path d="M2060 4589 c-325 -36 -647 -145 -920 -309 -605 -364 -999 -955 -1106
-1660 -22 -141 -24 -462 -5 -600 71 -515 281 -952 631 -1314 358 -369 781
-590 1295 -678 175 -29 512 -32 685 -5 443 70 819 238 1151 516 247 207 438
450 584 746 106 215 166 400 212 650 25 142 26 584 0 730 -39 221 -102 425
-188 606 l-52 109 -50 0 c-27 0 -114 5 -194 11 l-145 12 -99 -99 c-54 -54 -99
-104 -99 -110 0 -6 22 -53 49 -105 133 -254 191 -493 192 -789 0 -650 -356
-1221 -950 -1519 -92 -47 -284 -113 -391 -135 -378 -77 -767 -25 -1110 150
-496 253 -824 709 -911 1269 -18 115 -15 379 4 500 70 426 294 805 632 1070
406 318 947 432 1450 305 138 -34 296 -96 400 -155 l79 -46 95 95 95 95 -12
168 c-7 92 -12 186 -12 209 l0 41 -102 48 c-204 95 -475 169 -710 194 -112 13
-388 12 -498 0z"/>
<path d="M2218 3428 c-464 -33 -869 -370 -996 -828 -130 -466 62 -973 469
-1242 653 -431 1532 -85 1724 678 53 215 30 492 -61 709 l-16 38 -212 -212
-213 -213 -6 -82 c-16 -203 -112 -369 -276 -474 -87 -57 -169 -83 -278 -89
-119 -7 -196 8 -301 58 -187 90 -314 277 -329 484 -8 109 10 202 58 304 31 66
54 99 116 161 114 113 231 164 397 174 l69 5 214 213 c117 117 209 215 205
219 -15 13 -120 50 -197 69 -102 26 -243 37 -367 28z"/>
</g>
</svg>
